/* XPM */
static char *_b4fc37436644ed4ad2576650668410epoOxPXC3k0OpGqm0[] = {
/* columns rows colors chars-per-pixel */
"100 100 10 1 ",
"  c black",
". c #930054",
"X c #009334",
"o c #3BFF3E",
"O c #C1A962",
"+ c #2714FF",
"@ c #FF4693",
"# c #9A00EB",
"$ c #FFF993",
"% c #C493FF",
/* pixels */
"##########OOOOOOOOOOXXXXXXXXXX%%%%%%%%%%@@@@@@@@@@$$$$$$$$$$++++++++++..........oooooooooo          ",
"##########OOOOOOOOOOXXXXXXXXXX%%%%%%%%%%@@@@@@@@@@$$$$$$$$$$++++++++++..........oooooooooo          ",
"##########OOOOOOOOOOXXXXXXXXXX%%%%%%%%%%@@@@@@@@@@$$$$$$$$$$++++++++++..........oooooooooo          ",
"##########OOOOOOOOOOXXXXXXXXXX%%%%%%%%%%@@@@@@@@@@$$$$$$$$$$++++++++++..........oooooooooo          ",
"##########OOOOOOOOOOXXXXXXXXXX%%%%%%%%%%@@@@@@@@@@$$$$$$$$$$++++++++++..........oooooooooo          ",
"##########OOOOOOOOOOXXXXXXXXXX%%%%%%%%%%@@@@@@@@@@$$$$$$$$$$++++++++++..........oooooooooo          ",
"##########OOOOOOOOOOXXXXXXXXXX%%%%%%%%%%@@@@@@@@@@$$$$$$$$$$++++++++++..........oooooooooo          ",
"##########OOOOOOOOOOXXXXXXXXXX%%%%%%%%%%@@@@@@@@@@$$$$$$$$$$++++++++++..........oooooooooo          ",
"##########OOOOOOOOOOXXXXXXXXXX%%%%%%%%%%@@@@@@@@@@$$$$$$$$$$++++++++++..........oooooooooo          ",
"##########OOOOOOOOOOXXXXXXXXXX%%%%%%%%%%@@@@@@@@@@$$$$$$$$$$++++++++++..........oooooooooo          ",
"##########OOOOOOOOOOXXXXXXXXXX%%%%%%%%%%@@@@@@@@@@$$$$$$$$$$++++++++++..........oooooooooo          ",
"##########OOOOOOOOOOXXXXXXXXXX%%%%%%%%%%@@@@@@@@@@$$$$$$$$$$++++++++++..........oooooooooo          ",
"##########OOOOOOOOOOXXXXXXXXXX%%%%%%%%%%@@@@@@@@@@$$$$$$$$$$++++++++++..........oooooooooo          ",
"##########OOOOOOOOOOXXXXXXXXXX%%%%%%%%%%@@@@@@@@@@$$$$$$$$$$++++++++++..........oooooooooo          ",
"##########OOOOOOOOOOXXXXXXXXXX%%%%%%%%%%@@@@@@@@@@$$$$$$$$$$++++++++++..........oooooooooo          ",
"##########OOOOOOOOOOXXXXXXXXXX%%%%%%%%%%@@@@@@@@@@$$$$$$$$$$++++++++++..........oooooooooo          ",
"##########OOOOOOOOOOXXXXXXXXXX%%%%%%%%%%@@@@@@@@@@$$$$$$$$$$++++++++++..........oooooooooo          ",
"##########OOOOOOOOOOXXXXXXXXXX%%%%%%%%%%@@@@@@@@@@$$$$$$$$$$++++++++++..........oooooooooo          ",
"##########OOOOOOOOOOXXXXXXXXXX%%%%%%%%%%@@@@@@@@@@$$$$$$$$$$++++++++++..........oooooooooo          ",
"##########OOOOOOOOOOXXXXXXXXXX%%%%%%%%%%@@@@@@@@@@$$$$$$$$$$++++++++++..........oooooooooo          ",
"##########OOOOOOOOOOXXXXXXXXXX%%%%%%%%%%@@@@@@@@@@$$$$$$$$$$++++++++++..........oooooooooo          ",
"##########OOOOOOOOOOXXXXXXXXXX%%%%%%%%%%@@@@@@@@@@$$$$$$$$$$++++++++++..........oooooooooo          ",
"##########OOOOOOOOOOXXXXXXXXXX%%%%%%%%%%@@@@@@@@@@$$$$$$$$$$++++++++++..........oooooooooo          ",
"##########OOOOOOOOOOXXXXXXXXXX%%%%%%%%%%@@@@@@@@@@$$$$$$$$$$++++++++++..........oooooooooo          ",
"##########OOOOOOOOOOXXXXXXXXXX%%%%%%%%%%@@@@@@@@@@$$$$$$$$$$++++++++++..........oooooooooo          ",
"##########OOOOOOOOOOXXXXXXXXXX%%%%%%%%%%@@@@@@@@@@$$$$$$$$$$++++++++++..........oooooooooo          ",
"##########OOOOOOOOOOXXXXXXXXXX%%%%%%%%%%@@@@@@@@@@$$$$$$$$$$++++++++++..........oooooooooo          ",
"##########OOOOOOOOOOXXXXXXXXXX%%%%%%%%%%@@@@@@@@@@$$$$$$$$$$++++++++++..........oooooooooo          ",
"##########OOOOOOOOOOXXXXXXXXXX%%%%%%%%%%@@@@@@@@@@$$$$$$$$$$++++++++++..........oooooooooo          ",
"##########OOOOOOOOOOXXXXXXXXXX%%%%%%%%%%@@@@@@@@@@$$$$$$$$$$++++++++++..........oooooooooo          ",
"##########OOOOOOOOOOXXXXXXXXXX%%%%%%%%%%@@@@@@@@@@$$$$$$$$$$++++++++++..........oooooooooo          ",
"##########OOOOOOOOOOXXXXXXXXXX%%%%%%%%%%@@@@@@@@@@$$$$$$$$$$++++++++++..........oooooooooo          ",
"##########OOOOOOOOOOXXXXXXXXXX%%%%%%%%%%@@@@@@@@@@$$$$$$$$$$++++++++++..........oooooooooo          ",
"##########OOOOOOOOOOXXXXXXXXXX%%%%%%%%%%@@@@@@@@@@$$$$$$$$$$++++++++++..........oooooooooo          ",
"##########OOOOOOOOOOXXXXXXXXXX%%%%%%%%%%@@@@@@@@@@$$$$$$$$$$++++++++++..........oooooooooo          ",
"##########OOOOOOOOOOXXXXXXXXXX%%%%%%%%%%@@@@@@@@@@$$$$$$$$$$++++++++++..........oooooooooo          ",
"##########OOOOOOOOOOXXXXXXXXXX%%%%%%%%%%@@@@@@@@@@$$$$$$$$$$++++++++++..........oooooooooo          ",
"##########OOOOOOOOOOXXXXXXXXXX%%%%%%%%%%@@@@@@@@@@$$$$$$$$$$++++++++++..........oooooooooo          ",
"##########OOOOOOOOOOXXXXXXXXXX%%%%%%%%%%@@@@@@@@@@$$$$$$$$$$++++++++++..........oooooooooo          ",
"##########OOOOOOOOOOXXXXXXXXXX%%%%%%%%%%@@@@@@@@@@$$$$$$$$$$++++++++++..........oooooooooo          ",
"##########OOOOOOOOOOXXXXXXXXXX%%%%%%%%%%@@@@@@@@@@$$$$$$$$$$++++++++++..........oooooooooo          ",
"##########OOOOOOOOOOXXXXXXXXXX%%%%%%%%%%@@@@@@@@@@$$$$$$$$$$++++++++++..........oooooooooo          ",
"##########OOOOOOOOOOXXXXXXXXXX%%%%%%%%%%@@@@@@@@@@$$$$$$$$$$++++++++++..........oooooooooo          ",
"##########OOOOOOOOOOXXXXXXXXXX%%%%%%%%%%@@@@@@@@@@$$$$$$$$$$++++++++++..........oooooooooo          ",
"##########OOOOOOOOOOXXXXXXXXXX%%%%%%%%%%@@@@@@@@@@$$$$$$$$$$++++++++++..........oooooooooo          ",
"##########OOOOOOOOOOXXXXXXXXXX%%%%%%%%%%@@@@@@@@@@$$$$$$$$$$++++++++++..........oooooooooo          ",
"##########OOOOOOOOOOXXXXXXXXXX%%%%%%%%%%@@@@@@@@@@$$$$$$$$$$++++++++++..........oooooooooo          ",
"##########OOOOOOOOOOXXXXXXXXXX%%%%%%%%%%@@@@@@@@@@$$$$$$$$$$++++++++++..........oooooooooo          ",
"##########OOOOOOOOOOXXXXXXXXXX%%%%%%%%%%@@@@@@@@@@$$$$$$$$$$++++++++++..........oooooooooo          ",
"##########OOOOOOOOOOXXXXXXXXXX%%%%%%%%%%@@@@@@@@@@$$$$$$$$$$++++++++++..........oooooooooo          ",
"##########OOOOOOOOOOXXXXXXXXXX%%%%%%%%%%@@@@@@@@@@$$$$$$$$$$++++++++++..........oooooooooo          ",
"##########OOOOOOOOOOXXXXXXXXXX%%%%%%%%%%@@@@@@@@@@$$$$$$$$$$++++++++++..........oooooooooo          ",
"##########OOOOOOOOOOXXXXXXXXXX%%%%%%%%%%@@@@@@@@@@$$$$$$$$$$++++++++++..........oooooooooo          ",
"##########OOOOOOOOOOXXXXXXXXXX%%%%%%%%%%@@@@@@@@@@$$$$$$$$$$++++++++++..........oooooooooo          ",
"##########OOOOOOOOOOXXXXXXXXXX%%%%%%%%%%@@@@@@@@@@$$$$$$$$$$++++++++++..........oooooooooo          ",
"##########OOOOOOOOOOXXXXXXXXXX%%%%%%%%%%@@@@@@@@@@$$$$$$$$$$++++++++++..........oooooooooo          ",
"##########OOOOOOOOOOXXXXXXXXXX%%%%%%%%%%@@@@@@@@@@$$$$$$$$$$++++++++++..........oooooooooo          ",
"##########OOOOOOOOOOXXXXXXXXXX%%%%%%%%%%@@@@@@@@@@$$$$$$$$$$++++++++++..........oooooooooo          ",
"##########OOOOOOOOOOXXXXXXXXXX%%%%%%%%%%@@@@@@@@@@$$$$$$$$$$++++++++++..........oooooooooo          ",
"##########OOOOOOOOOOXXXXXXXXXX%%%%%%%%%%@@@@@@@@@@$$$$$$$$$$++++++++++..........oooooooooo          ",
"##########OOOOOOOOOOXXXXXXXXXX%%%%%%%%%%@@@@@@@@@@$$$$$$$$$$++++++++++..........oooooooooo          ",
"##########OOOOOOOOOOXXXXXXXXXX%%%%%%%%%%@@@@@@@@@@$$$$$$$$$$++++++++++..........oooooooooo          ",
"##########OOOOOOOOOOXXXXXXXXXX%%%%%%%%%%@@@@@@@@@@$$$$$$$$$$++++++++++..........oooooooooo          ",
"##########OOOOOOOOOOXXXXXXXXXX%%%%%%%%%%@@@@@@@@@@$$$$$$$$$$++++++++++..........oooooooooo          ",
"##########OOOOOOOOOOXXXXXXXXXX%%%%%%%%%%@@@@@@@@@@$$$$$$$$$$++++++++++..........oooooooooo          ",
"##########OOOOOOOOOOXXXXXXXXXX%%%%%%%%%%@@@@@@@@@@$$$$$$$$$$++++++++++..........oooooooooo          ",
"##########OOOOOOOOOOXXXXXXXXXX%%%%%%%%%%@@@@@@@@@@$$$$$$$$$$++++++++++..........oooooooooo          ",
"##########OOOOOOOOOOXXXXXXXXXX%%%%%%%%%%@@@@@@@@@@$$$$$$$$$$++++++++++..........oooooooooo          ",
"##########OOOOOOOOOOXXXXXXXXXX%%%%%%%%%%@@@@@@@@@@$$$$$$$$$$++++++++++..........oooooooooo          ",
"##########OOOOOOOOOOXXXXXXXXXX%%%%%%%%%%@@@@@@@@@@$$$$$$$$$$++++++++++..........oooooooooo          ",
"##########OOOOOOOOOOXXXXXXXXXX%%%%%%%%%%@@@@@@@@@@$$$$$$$$$$++++++++++..........oooooooooo          ",
"##########OOOOOOOOOOXXXXXXXXXX%%%%%%%%%%@@@@@@@@@@$$$$$$$$$$++++++++++..........oooooooooo          ",
"##########OOOOOOOOOOXXXXXXXXXX%%%%%%%%%%@@@@@@@@@@$$$$$$$$$$++++++++++..........oooooooooo          ",
"##########OOOOOOOOOOXXXXXXXXXX%%%%%%%%%%@@@@@@@@@@$$$$$$$$$$++++++++++..........oooooooooo          ",
"##########OOOOOOOOOOXXXXXXXXXX%%%%%%%%%%@@@@@@@@@@$$$$$$$$$$++++++++++..........oooooooooo          ",
"##########OOOOOOOOOOXXXXXXXXXX%%%%%%%%%%@@@@@@@@@@$$$$$$$$$$++++++++++..........oooooooooo          ",
"##########OOOOOOOOOOXXXXXXXXXX%%%%%%%%%%@@@@@@@@@@$$$$$$$$$$++++++++++..........oooooooooo          ",
"##########OOOOOOOOOOXXXXXXXXXX%%%%%%%%%%@@@@@@@@@@$$$$$$$$$$++++++++++..........oooooooooo          ",
"##########OOOOOOOOOOXXXXXXXXXX%%%%%%%%%%@@@@@@@@@@$$$$$$$$$$++++++++++..........oooooooooo          ",
"##########OOOOOOOOOOXXXXXXXXXX%%%%%%%%%%@@@@@@@@@@$$$$$$$$$$++++++++++..........oooooooooo          ",
"##########OOOOOOOOOOXXXXXXXXXX%%%%%%%%%%@@@@@@@@@@$$$$$$$$$$++++++++++..........oooooooooo          ",
"##########OOOOOOOOOOXXXXXXXXXX%%%%%%%%%%@@@@@@@@@@$$$$$$$$$$++++++++++..........oooooooooo          ",
"##########OOOOOOOOOOXXXXXXXXXX%%%%%%%%%%@@@@@@@@@@$$$$$$$$$$++++++++++..........oooooooooo          ",
"##########OOOOOOOOOOXXXXXXXXXX%%%%%%%%%%@@@@@@@@@@$$$$$$$$$$++++++++++..........oooooooooo          ",
"##########OOOOOOOOOOXXXXXXXXXX%%%%%%%%%%@@@@@@@@@@$$$$$$$$$$++++++++++..........oooooooooo          ",
"##########OOOOOOOOOOXXXXXXXXXX%%%%%%%%%%@@@@@@@@@@$$$$$$$$$$++++++++++..........oooooooooo          ",
"##########OOOOOOOOOOXXXXXXXXXX%%%%%%%%%%@@@@@@@@@@$$$$$$$$$$++++++++++..........oooooooooo          ",
"##########OOOOOOOOOOXXXXXXXXXX%%%%%%%%%%@@@@@@@@@@$$$$$$$$$$++++++++++..........oooooooooo          ",
"##########OOOOOOOOOOXXXXXXXXXX%%%%%%%%%%@@@@@@@@@@$$$$$$$$$$++++++++++..........oooooooooo          ",
"##########OOOOOOOOOOXXXXXXXXXX%%%%%%%%%%@@@@@@@@@@$$$$$$$$$$++++++++++..........oooooooooo          ",
"##########OOOOOOOOOOXXXXXXXXXX%%%%%%%%%%@@@@@@@@@@$$$$$$$$$$++++++++++..........oooooooooo          ",
"##########OOOOOOOOOOXXXXXXXXXX%%%%%%%%%%@@@@@@@@@@$$$$$$$$$$++++++++++..........oooooooooo          ",
"##########OOOOOOOOOOXXXXXXXXXX%%%%%%%%%%@@@@@@@@@@$$$$$$$$$$++++++++++..........oooooooooo          ",
"##########OOOOOOOOOOXXXXXXXXXX%%%%%%%%%%@@@@@@@@@@$$$$$$$$$$++++++++++..........oooooooooo          ",
"##########OOOOOOOOOOXXXXXXXXXX%%%%%%%%%%@@@@@@@@@@$$$$$$$$$$++++++++++..........oooooooooo          ",
"##########OOOOOOOOOOXXXXXXXXXX%%%%%%%%%%@@@@@@@@@@$$$$$$$$$$++++++++++..........oooooooooo          ",
"##########OOOOOOOOOOXXXXXXXXXX%%%%%%%%%%@@@@@@@@@@$$$$$$$$$$++++++++++..........oooooooooo          ",
"##########OOOOOOOOOOXXXXXXXXXX%%%%%%%%%%@@@@@@@@@@$$$$$$$$$$++++++++++..........oooooooooo          ",
"##########OOOOOOOOOOXXXXXXXXXX%%%%%%%%%%@@@@@@@@@@$$$$$$$$$$++++++++++..........oooooooooo          ",
"##########OOOOOOOOOOXXXXXXXXXX%%%%%%%%%%@@@@@@@@@@$$$$$$$$$$++++++++++..........oooooooooo          "
};
