/* XPM */
static char *_6df00217d3c49148bc64d9488046698MHRxrD9WLMNwEw13[] = {
/* columns rows colors chars-per-pixel */
"20 20 20 1 ",
"  c black",
". c #0B300C",
"X c #7F0474",
"o c #930054",
"O c #009334",
"+ c #30CF32",
"@ c #3BFF3E",
"# c #25935A",
"$ c #BA897B",
"% c #C1A962",
"& c #3B10DF",
"* c #2714FF",
"= c #FF4693",
"- c #FF6893",
"; c #A21FD1",
": c #9A00EB",
"> c #FFD893",
", c #FFF993",
"< c #9F93D9",
"1 c #C493FF",
/* pixels */
":;$%O#<1=->,*&Xo@+. ",
":;$%O#<1=->,*&Xo@+. ",
":;$%O#<1=->,*&Xo@+. ",
":;$%O#<1=->,*&Xo@+. ",
":;$%O#<1=->,*&Xo@+. ",
":;$%O#<1=->,*&Xo@+. ",
":;$%O#<1=->,*&Xo@+. ",
":;$%O#<1=->,*&Xo@+. ",
":;$%O#<1=->,*&Xo@+. ",
":;$%O#<1=->,*&Xo@+. ",
":;$%O#<1=->,*&Xo@+. ",
":;$%O#<1=->,*&Xo@+. ",
":;$%O#<1=->,*&Xo@+. ",
":;$%O#<1=->,*&Xo@+. ",
":;$%O#<1=->,*&Xo@+. ",
":;$%O#<1=->,*&Xo@+. ",
":;$%O#<1=->,*&Xo@+. ",
":;$%O#<1=->,*&Xo@+. ",
":;$%O#<1=->,*&Xo@+. ",
":;$%O#<1=->,*&Xo@+. "
};
