/* XPM */
static char *f9a55a731f8a4a4ab7a01220e43af190hjOVNM5AlUHAMGja[] = {
/* columns rows colors chars-per-pixel */
"100 100 49 1 ",
"  c #2A210D",
". c #31260F",
"X c #332710",
"o c #372A11",
"O c #3C2D14",
"+ c #3F3016",
"@ c #412F16",
"# c #443217",
"$ c #433118",
"% c #493519",
"& c #4A3919",
"* c #50371B",
"= c #533C1C",
"- c #593E1E",
"; c #5C3E20",
": c #5C411F",
"> c #5E4120",
", c #624421",
"< c #634422",
"1 c #644421",
"2 c #664522",
"3 c #674524",
"4 c #664724",
"5 c #684623",
"6 c #6A4724",
"7 c #6B4724",
"8 c #6B4824",
"9 c #6F4A26",
"0 c #6F4A28",
"q c #704A26",
"w c #734C27",
"e c #704B28",
"r c #724C28",
"t c #744C28",
"y c #774F2A",
"u c #784F2A",
"i c #79502B",
"p c #7B512B",
"a c #7D512B",
"s c #7D532D",
"d c #7E522D",
"f c #80532E",
"g c #81542E",
"h c #85562F",
"j c #875730",
"k c #885730",
"l c #8A5832",
"z c #8C5A33",
"x c #8F5B34",
/* pixels */
"$$$$$$$$$$$+$$$$$$$$$$$+$$$$$$$$$$$+$$$$$$$$$$$+$$$$$$$$$$$+$$$$$$$$$$$+$$$$$$$$$$$+$$$$$$$$$$$+$$$$",
"====================================================================================================",
"qqqqqqqqqqq99qqqqqqqqqq99qqqqqqqqqq99qqqqqqqqqq99qqqqqqqqqq99qqqqqqqqqq99qqqqqqqqqq99qqqqqqqqqq99qqq",
"jjjjjjjjjjjjjjjjjjjjjjjjjjjjjjjjjjjjjjjjjjjjjjjjjjjjjjjjjjjjjjjjjkjjjjjjjjjjjjjjjjjjjjjjjjjjjjjjjjjj",
"iiiiiiiiiitett960tiiiiiiiiiiiiiiiiiiiiueru960tiiiiitetr69ruiiiiiiiurri960tiiiiiiiiiiiiiiiit0tt69euii",
"==========&O%&X O&=====================+#=o O&=====&O&# X$=========$$=O o&================&O&# X+===",
"&&&:266666,&,qOo&9q-=&&&&&-66>&::&->&&&&>t@o&6t8-=2-&9; O-i6=&&&&=-&>i%.%2r=-2=&&>,&:,=:66:&9> O=t92",
"&&&,9ttttq2=rgOO-df,=&&&&&>tt,&,,&:2&&&=9l#o=ilt:=92-g6 #2zt>=&&&=,-6x*X=tg=:q=&&22&,8&>tt2-d9 $2la9",
"&&&,9tttt3:=rgOO-dg9=&&&&=,tr,&,,&:2&&&=9l#o=ilt:=92-g6 #2zd9>=&=2q:6x*X=tg=:q=&&22&,8&>tt2-d9 $2la9",
"&&&:6tttt2==rgOO-dhq:&&&&=,tt,&,,&:2&&&=9l#o=ikw:=92-g6 #2zfq8>=29q>6x*X=tg=:q=&&22&,8&>tt2-d9 $2la9",
"&&&=,qrtt,==rgOO-djt,=&&&=2tq,&,,&:2&&&=9l#o=ijq-&92-g6 #2zftt62qtq>6x*X=tg=:q=&&22&,8&>tt2-d9 $2la9",
"=&&=>9qtt,==rgOO-djt,=&&&=2r9:&,,&:2&&&=9l#o=ijq-&92-g6 #2zfttqqrtq>6x*X=tg=:9=&&22&,8&>tt5-d9 $2la9",
",=&&=29q6-&=rgOO-djt,=&&=,8r9:&,,&:2&&&=9l#o=ijq-=82-g6 #2zfttttttq>6x*X=tg=:q=&&22&,8&:qr2-d9 $,lt,",
"9:&&=-66>=&=rgOO-djt2-&&-5qe8:&,,&:2&&&=9l#o=ij9=&92-g6 #2zfttttttq>6x*X=tg=:q=&&22&,8&:9q2-d9 $2lq=",
"9:&&&&:>=&&=rgOO-djt9,&=>9rq2=&,,&:2&&&=9l#o=ig2==92-g6 #2zfttttttq>6x=X=tg=:q=&&22&,8&:9q2-d9 $2lq=",
"9,&&&&===&&=rgOO-djtq2=:2qtq,=&,,&:2&&&=9l#o=ig,==92-g6 #2zfttttttq>6x*X=tg=:q=&&22&,8&=2q2-d9 $2lq=",
"t2=&&&&=&&&=rgOO-djtt9>29qtq,=&,,&:2&&&=9l#o=ig,=&92-g6 #2zfttttttq>6x*X=tg=:q=&&22&,8&=>92-d9 $2l9=",
"t2=&&&&&&&==rgOO-djttq59qttq>=&,,&:2&&&=9l#o=id=&=82-g6 #2zfttttttq>6x*X=tg=:q=&&22&,8&=>92-d9 $2l8&",
"q6:&&&&&&=:=rgOO-djttq9qtttq:&&,,&:2&&&=9l#o=id&&=92-g6 #2zdqtttttq>6x*X=tg=:q=&&22&,9==-92-d9 $2l8&",
"999=&&&&=29-rgOO-djttq9qtttq:&&,,&:2&&&=9l#o=id&=,92-g6 #2zi9qttttq>6x*X=tg=:q=&&22&,9-&&82-d9 $2l8&",
"9qq-&&&&=29-rgOO-djttrqqtrq9=&&,,&:2&&&=9l#o=id&=,q2-g6 #2zi9qtttq9:6x*X=tg=:q=&&22&,9-&&82-d9 $2l8&",
"29q,=&&=:69-rgOO-djtttttttq5=&&,,&:2&&&=9l#o=id&=2q2-g6 #2zu6qtttq6:6x*X=tg=:q=&&22&,9-&&82-d9 $2l8&",
">6tq,&&:9q9-rgOO-djttttttt92=&&,,&:2&&&=9l#o=id&>qt2-g6 #2zr,qtttq6:6x*X=tg=:q=&&22&,9-&&82-d9 $2l8&",
"-2tt9,->q9,=rgOO-dhqqttttr92=&&,,&:2&&&=9l#o=ig-2tt2-g6 #2z9-8qrq6,-6x*X=tg=:q=&&22&,9-&&82-d9 $2l9&",
"=,qttr,>q2-=rgOO-dh9qttttt92=&&,,&:2&&&=9l#o=ig,6tq2-g6 #2z3&29q8,-=6x*X=tg=:q=&&22&,9-&&82-d9 $2l9=",
"&:9qtr,,q,==rgOO-dh9qttttt6>&&&,,&:2&&&=9l#o=ig,6q9,-g6 #2z3&:28,=&=6x*X=tg=:q=&&22&,9>=&82-d9 $,lq=",
"&-9qtt86r,==rgOO-dg29ttttt6-&&&,,&:2&&&=9l#o=ij89q9,-g6 #2z3&=:,=&&&6x*X=tg=:q=&&22&,9>=&22-d9 $2lq=",
"&-8qttttt,==rgOO-dd>6ttttt6-&&&,,&:2&&&=9l#o=ilttq9,-g6 #2z3&&==&&&&6x*X=tg=:q=&&22&,9,=&2,-d9 $2lq=",
"&=,6qtttt:&=rgOO-dd>6ttttt2=&&&,,&:2&&&=9l#o=iltrq2--g6 #2l3&&&&&&&&6x*X=tg=:q=&&22&,q6-&2,-d9 $2li2",
"&=-29ttq8=&=rgOO-dd-5qtttt2=&&&,,&:2&&&=9l#o=iltq9,--g6 #2l3&&&&&&&&6x*X=tg=:q=&&22&,q9:&2,-d9 $2la9",
"&&=29tt9>=&=rgOO-dd=,9rttt2=&&=2,&:2&&&=9l#o=iltq5>--g6 #2z3&&&&&&&=6x=X=tg=:q=&&22&,q9:&2,-d9 $2la9",
"&&&:6tt8-&&=rgOO-dd=,9rtrq>&&&=2,&:2&&&=9l#o=iltq2==-g6 #2z3&&&&&&&=6x*X=tg=:q=&&22&,q9:&::-d9 $2la9",
"&&&=2tt6=&&=rgOO-di=>6qtq9:&&&=,,&:2&&&=9l#o=ilt9,&&-g6 #2z8&&&&&&&=6x*X=tg=:q=&&22&,q9:&---d9 $2la9",
"&&&=,tt6=&&=rgOO-di&=,qtq9:&&&=,,&:2&&&=9l#o=ilt6-&&-g6 #2ze=&&&&=-=6x*X=tg=:q=&&22&,tt>&---d9 $2la9",
"&&&=-2,:&&&=rgOO-di&=,qtq2=&&&-2,&:2&&&=9l#o=ikw>&&&-g6 #2zt,=&&=:2-6x*X=tg=:q=&&22&>qr>&&=-d9 $2la9",
"=&&&=-=&&&&=rgOO-di&=,qq9,=&&=>2,&:2&&&=9l#o=ij9=&&&-g6 #2za6,=&:29:6x*X=tg=:q=&&22&:9q>&&&-d9 $2la9",
"=&&&&=&&&&==rgOO-di&=:696>=&&=>2,&:2&&&=9l#o=ig,=&&&-g6 #2zdq8,>29q:6x*X=tg=:q=&&22&:9q,=&&-d9 $,la9",
"=&&&&&&&&&==rgOO-di&&-,2,-=&&=>,:&:2&&&=9l#o=ig-&&&&-g6 #2zfrq629qq>6x*X=tg=:q=&&22&-5q2=&&-d9 $2lu2",
"==&&&&&&&=-=rgOO-di&&=---=&&&=>>=&:2&&&=9l#o=id&&&&&-g6 #2zfttq9qtq>6x*X=tg=:q=&&22&=,q2=&&-d9 $2lr-",
"2-&&&&&&&:2-rgOO-di&&&===&&&&=5:=&:2&&&=9l#o=id=&&&&-g6 #2zfttrqttq>6x*X=tg=:q=&&22&=,q3-&&-d9 $2le=",
"9:&&&&&&&:2=rg@O-di&&&&&&&&&&=9:=&:2&&&=9l#o=id=&&&=-g6 #2zfttttttq>6x*X=tg=:q=&&22&=>q6-&&-d9 $2l9=",
"9:&&&&&&&:2=rgOO-di&&&&&&&&&&=9:=&:2&&&=9l#o=id=&&==-g6 #2zfttttttq>6x*X=tg=:q=&&22&&:q6-&&-d9 $2l9=",
"9>=&&&&&=->=rgOO-di&&&&&&&&&&:q-&&:2&&&=9l#o=id&&&==-g6 #2zfttttttq>6x*X=tg=:q=&&22&&:q92==-d9 $2l8&",
"2>=&&&&&==-=rgOO-di&&&&&&&&&=,r=&&:2&&&=9l#o=id&&&==-g6 #2zdqtttttq>6x*X=tg=:9=&&22&&:qq5-=-d9 $2l8&",
">-=&&&&&====rgOO=dt&&&&&&&&&-2r=&&:,&&&=9l#o=id&&&---g6 #2zi9qttttq>6x*X=tg=:q=&&22&&:qq5-=-d9 $2l8&",
"=:,&&&&&,-==rgOO=dt&&&&&&&&&-2r=&&:,&&&=9l#o=id&&&,:-g6 #2zi9qttttq>6x*X=tg=:q=&&22&&=9q9>==d9 $2l8&",
"=>5=&&&=5:==rgOO=dt&&&&&&&&&:6r=&&:2&&&=9l#o=id&&=2,-g6 #2zu6qtttrq:6x=X=tg=:q=&&22&&=9tq,=&i9 $2l8&",
"=>5-&&&=5-&=rgOO-dt&&&&&&&&&,9r=&&:,&&&=9l#o=id&&=2,-g6 #2zr,qtttq8:6x*X=tg=:q=&&22&&=9tq,-=d9 $,l8&",
"&-,-&&=:,=&=rg@O-di=&&&&&&&&,9r=&&:2&&&=9l#o=id&=>9,-g6 #2zr,9qttq6:6x*X=tg=:q=&&22&&=6qq5>-d9 $,l8&",
"&=--=&,2>=&=rgOO-dd=&&&&&&&&29q=&&:2&&&=9l#o=id==,q2-g6 #2ze>5qtt95-6x*X=tg=:q=&&22&&=5qq9,-d9 $,l8&",
"&&=,>=,2=&&=rgOO-dd>&&&&&&&=6q9=&=,2&&&=9l#o=if->8q2-g6 #2z8=2qtt8>=6x*X=tg=:q=&&22&&=5qq9,-d9 $2l8&",
"&&=2,=22=&&=rgOO-dg2=&&&&&&-9q8=&=,2&&&=9l#o=ig>2qr2-g6 #2z3&,9rq2==6x*X=tg=:q=&&26=&&,9rq2-d9 $2l8&",
"&&=2,=2,=&&=rgOO-dh9:=&&&&=>9q5=&=,2&&&=9l#o=ig,6tt2-g6 #2z3&=2q9:&=6x*X=tg=:q=&&26=&&-6tt2-d9 $2l8&",
"&&&:,2,-&&&=rgOO-djq,=&&&&=>99,=&-22&&&=9l#o=ij99tt2-g6 #2z3&&>9,=&=6x*X=tg=:q=&&26=&&-6tt2-d9 $,l9=",
"&&&=>2>=&&&=rgOO-djt6:&&&=:3q6-&&>22&&&=9l#o=ijqqtt2-g6 #2z3&&=,-&&=6x*X=tg=:q=&&26=&&=2tt2-d9 $,l9=",
"&&&==>==&&&=rgOO-djt92=&&=,tt5=&&>22&&&=9l#o=iltttt2-g6 #2z3&&=-&&&=6x*X=tg=:q=&&26=&&=2tt2-d9 $,lq=",
"&&&&&=&&&&&=rgOO-djtq8:=&=2tt5=&&>22&&&=9l#o=ilttrq,-g6 #2z3&&&&&&&=6x*X=tg=:q=&&26=&&=2tt2-d9 $2lr-",
"&&&&&&&&&&&=rgOO-djttq2-=>6tt2=&&>22&&&=9l#o=ilttq9,-g6 #2z3&&&&&&&=3x*X=tg=:q=&&28-&&=2tt2-d9 $2lt,",
"&&&&&&&&&&&=rgOO-djttte2>9rtr,&&=592&&&=9l#o=ilttq9,-g6 #2z3&&&&&&&=3x&X=tg=:q=&&29>=&=2tt2-d9 $2la8",
"&&&&&&&&&&==rgOO-djtttt99qttq,&&=592&&&=9l#o=ilttq2:-g6 #2z3&&&&&&&&3x*X=tg=:9=&&29>=&&>qq2-d9 $2la9",
"&&&&&&&&&&==rgOO-djqrttttttr9:&&=892&&&=9l#o=iltr9,--g6 #2z8&&&&&&&&6x*X=tg=:q=&&29,=&&:9q2-d9 $2la9",
"=&&&&&&&&&==rgOO-dh9qttttttr9:&&=q92&&&=9l#o=iltq6>--g6 #2z0=&&&&&&&6x*X=tg=:q=&&2q6=&&:9q2-d9 $2la9",
"=&&&&&&&&===rgOO-dh9qttttttq6-&&=q92&&&=9l#o=iltq2==-g6 #2zr-&&&&&&=6x=X=tg=:q=&&,98=&&=2q2-d9 $2lt,",
"==&&&&&&&=-=rgOO-dg6qttttttq,=&&=q9,&&&=9l%o=ilt92&&-g6 #2zr-&&&&&&=6x*X=tg=:q=&&,99-&&=>92-d9 $,l9=",
"2:=&&&&&=--=rgOO-df,9ttttttq>=&&=q6:&&&=9l#o=ilt6:&&-g6 #2zu2-=&&&==6x*X=tg=:q=&&,9q:&&=>92-d9 $,l9=",
"8,=&&&&&=:,=rgOO-dd-6ttttttq-&&&=q2-&&&=9l#o=ikt2-&&-g6 #2zd8>=&&=>=6x*X=tg=:q=&&:6r>&&=:82-d9 $,l9&",
"8,=&&&&&=,2=rgOO-di=2tttttt9=&&&=q2=&&&=9l#o=ijq,=&&-g6 #2zf9,=&->>=6x*X=tg=:q=&&=,e,=&&=2,-d9 $,l8&",
"82-=&&&=-22=rgOO-di&,qrtttq6=&&&:q>&&&&=9l#o=ijq:&&&-g6 #2zfq6>=-,2-6x*X=tg=:q=&&=,e,=&&=2,-d9 $,l8&",
"92,==&=-,2,=rgOO-di&:6qttt92=&&=>q:&&&&=9l#o=ih8=&&&-g6 #2zfq92>,29:6x*X=tg=:q=&&=,q,=&&=,>-d9 $2l8&",
"995-===:5,-=rgOO-di&=,qttt6-&&&=,e:&&&&=9l#o=ig,=&&&-g6 #2zftt6>59q>6x*X=tg=:q=&&=>q,=&&=---d9 $2l8&",
",25>===>6,==rgOO-di&=>9qrq,=&&&:6r:&&&&=9l#o=id=&&&&-g6 #2zftt929qq>6x*X=tg=:q=&&=>q2=&&&---d9 $2l8&",
"-,6,>=>28:==rgOO-di&&=29q6:=&&&,9r:&&&&=9l#o=id&&&&&-g6 #2zfttq9qtq>6x*X=tg=:q=&&=>q2-&&&==-d9 $2l8&",
"=>962>269:==rgOO-di&&&=,6,=&&&&,9t:&&&&=9l#o=id&&&==-g6 #2zftttrttq>6x*X=tg=:q=&&=>q2-=&&==-d9 $,l8&",
"=>992>299:&=rgOO-di&&&&=:-=&&&&,qq-&&&&=9l#O=id&&&==-g6 #2zfttttttq>6x*X=tg=:q=&&=>q8,=&&==-d9 $,l8&",
"=:995,699=&=rgOO-di&&&&&==&&&&&2q9=&&&&=9l%O=id&&&==-g6 #2zftttttrq:6x*X=tg=:q=&&&:q95=&&==-d9 $,l8&",
"&:9qqqqq9=&=rgOO-di=&&&&&&&&&&=3q9=&&&&=9l#O=id&&&=--g6 #2zftttttq9:6x*X=tg=:q=&&&-qq5=&&==-d9 $,l8&",
"&=2qtttq9=&=rgOO-dd=&&&&&&&&&&-692=&&&&=9l#o=id&&=>:-g6 #2zdqrtttq6:6x*X=tg=:q=&&&=9q6:=&&=-d9 $2l8&",
"&=>9tttq9=&=rgOO-dd=&&&&&&&&&=>99>&&&&&=9l#o=id&&-5,-g6 #2zi9qtttq5-6x*X=tg=:q=&&&=5q9>=&&&-d9 $2l8&",
"&&-5qttq9=&=rgOO-dd:&&&&&&&&&=5q9>=&&&&=9l#o=id&=>92-g6 #2zi9qttt9>-6x*X=tg=:q=&&&=5q9>==&&-d9 $2l8&",
"&&=29ttq2=&=rgOO-dg,=&&&&&&&&=9q6=&&&&&=9l#o=id=-2q2-g6 #2zu6qttt6>=6x*X=tg=:q=&&&=29q2:=&&-d9 $2l9&",
"&&=29tt9>=&=rgOO-dh9:=&&&&&&&=8q2&&&&&&=9l#o=ig-,9q2-g6 #2zr,qttt6>=6x*X=tg=:q=&&&&>6q9,=&&-d9 #2lq=",
"&&&:6tq6>=&=rgOO-dhq>=&&&&&&&:q9,&&&&&&=9l#o=ih58qt2-g6 #2zr,qttq2==6x*X=tg=:q=&&&&>6q9,=&&-d9 #2lq=",
"&&&=,q92-&&=rgOO-djt,=&&&&&&=,t9,&&&&&&=9l#o=ijqqtt2-g6 #2ze>9qq9,==6x*X=tg=:q=&&&&-5q92-&&-d9 $2le=",
"&&&=:992=&&=rgOO-djt2=&&&&&&=2t9,&&&-=&=9l#o=iltttt2-g6 #2z9-5qq9,==6x*X=tg=:q:=&&&=,9q6-==-d9 $2lt>",
"&&&=:92>=&&=rgOO-dhq6>=&&&&&>6t6:&&&-=&=9l#o=iltttt2-g6 #2z9-5qq2-&=6x*X=tg=:q:&&&&=:2q9,-=-d9 $2lt>",
"&&&&-5,-=&&=rgOO-dh992=&&&&&,9r,=&&&>=&=9l#o=iltttt2-g6 #2z9=299,=&=6x&X=tg=:q:&&&&==,qq5-=-d9 $2lt,",
"&&&&=>>=&&&=rgOO-dh9q6=&&&&=29r:&&&&2-&=9l#o=iltttt2-g6 #2z3&:25-=&=6x=X=tg=:q:&&&&&=,qq5-=-d9 $2li5",
"&&&&&--=&&&=rgOO-dg299,=&&&=5qr=&&&=2:&=9l#o=iltttt2-g6 #2z3&=>,=&&=6x=X=tg=:q:&&&&&=>9q9-=-d9 $2la9",
"&&&&&==&&&&=rgOO-dd-6q9,=&=:9tq=&&&&2:&=9l#o=iltttt2-g6 #2z3&==-&&&=6x&X=tg=:q:=&&&&&-29q>=-d9 $2ld9",
"=&&&&&&&&&==rgOO-di&,9q9,=>9qq9=&&&=2:&=9l#o=iltttt2-g6 #2z3&&==&&&=3x&X=tg=:9>=&&&&&=>6q6>-d9 $2lfq",
"=&&&&&&&&&==rgOO-di&:6qq926tt92=&&&=6:&=9l#o=ilttrq,-g6 #2z3&&&&&&&=6x&X=tg=-82-&&&&&=-6q9,-d9 $2lft",
"=&&&&&&&&===rgOO-di&=,qtttttt6-&&&&=9>&=9l#o=ilttq9,-g6 #2z3&&&&&&&=6x&X=tg=-89>&&&&&&-6q9,-d9 $2lft",
"-=&&&&&&&-,=rgOO-di&&-qttttrq,&&&&=>q>&=9l#o=ilttq9,-g6 #2l3&&&&&&&=6x*X=tg==,5,&&&&&&=,99,-d9 $2lft",
">=&&&&&&&>2=rgOO-di&&=69qtqq6:&&&&=2q>&=9l#o=iltq95>-g6 #2z3&&&&&&&=6x*X=tg==>62=&&&&&&:22>-d9 $2lft",
">-=&&&&&=,2=rgOO-di&&&-29qq6,=&&&&:9q>&=9l#o=iltq5>--g6 #2l3&&&&&&&=6x*X=tg==>95=&&&&&&=>>--d9 $2lft",
"2:=&&&&&=,2=rgOO-di&&&&-296,=&&&&&:9q>&=9l#o=iltq5>--g6 #2l3&&&&&&&=6x*X=tg=&=85=&&&&&&&===-d9 $2lft",
"9,=&&&&&=,2=rgOO-di&&&&&-2,=&&&&&=,9r,&=9l#o=ilt92-=-g6 #2z3&&&&&&&&6x*X=th:&&66=&&&&&&&&&==d9 $2lft",
"92-&&&&&=,2=rgOO-di&&&&&&-=&&&&&=29rt3-=9l#o=ijq2-&&-g6 #2z3&&&&&&&&6x*X=tj2=&66-&&&&&&&&&&=d9 $2lft",
",,>=====->>=rg@O-di=&&&&&=&&&&&&-,233,-=9l#o=ih6-=&&-g6 #2z9=&&&&&==6x*X=tj3=&>,>&&&&&&&&&&=d9 $2li3",
">>>>>>>>>>-=rg@O-dd>=&&&&&&&&&&=>>>>>>-=9l#o=ig,=&&&-g6 #2zr-&&&&&>=6x*X=tj3=&=>>&&&&&&&&&&-d9 $2lt>"
};
