/* XPM */
static char *_5a31c02e4404e18f9e91e89518fc4a2FYKJFu9vfHw2PYGD[] = {
/* columns rows colors chars-per-pixel */
"100 100 53 1 ",
"  c gray12",
". c #232323",
"X c gray15",
"o c #2A2A2A",
"O c #2C2C2C",
"+ c gray19",
"@ c #373737",
"# c #393939",
"$ c #3F3F3F",
"% c #434343",
"& c gray27",
"* c #484848",
"= c gray30",
"- c gray32",
"; c gray33",
": c #5B5B5B",
"> c gray36",
", c gray38",
"< c #676767",
"1 c #6A6A6A",
"2 c #6C6C6C",
"3 c #727272",
"4 c gray46",
"5 c gray48",
"6 c gray50",
"7 c #808080",
"8 c gray53",
"9 c #888888",
"0 c gray56",
"q c #909090",
"w c gray58",
"e c #9B9B9B",
"r c #9D9D9D",
"t c #A2A2A2",
"y c #A7A7A7",
"u c gray67",
"i c #AEAEAE",
"p c gray69",
"a c #B7B7B7",
"s c #BBBBBB",
"d c #BCBCBC",
"f c #C1C1C1",
"g c gray78",
"h c #CACACA",
"j c gray81",
"k c #D2D2D2",
"l c #D7D7D7",
"z c gray85",
"x c gainsboro",
"c c #E2E2E2",
"v c gray90",
"b c gray91",
"n c #EEEEEE",
/* pixels */
" O#Xo#oX#oX@O.@O.++.+@.O@XO#Xo#oX#oX@O.@O.++.+@.O@XO#Xo#oX#oX@O.@O.++.+@.O@XO#Xo#oX#oX@O.@O.++.+@.O#",
"#$&$$&$$&$#%$#%$#1657756656756865755765773&OO*>>143454573373152>>=#+O+#$+#$@@$@@%@@%##%$#%$#%%#%%#$&",
";;;;;-;;-;;--;-=-ulxxxxlkzzlzxxxzlzzlzxxzj;o#10upshhghhjggjdaday92-OO&*============*-;=-;--;--;--;-=",
";;;;--;;--;-;;-=-pzlkklhfklklkjklkhgklljdr&o#1qsspyupretrrtrewtt2-%oo$;156544566631,,>=****=*****=**",
"112<<1121<<1;&==-pzjhghgfghjjhfhjjfsgjjse4#o#3tgdiwryq0eq0eqqqwq,*#Xo#,8yuiyuiuuie0985<,>,,<,,>,,<<,",
"qq099qqqq980;X*-;plhgfsgjddggfafggdaaghr5:+o#7ajdywruweuqquewyw6,*#Xo#2tjzxxxxllxgsspyw980qqq080qqqq",
"ddsssdpytw99-X*--pzjdppiiiuyppipaauyiap03;+o#4tduwqqqryuttuw9w93:*#Xo#1rkxzhhjghlkkkjhddddsasssssasd",
"ggggggaiuw87=X*--azhayuytutetuuyyureuut7<-Oo#,9itqwwqettyytw084<;&#Xo#1rkljsaaasdhjjjhffggfaffsffsdf",
"iiiiiittuq54*X*=-dxsytuuuuuurtueeuw0yut5,-Oo#&<tewyuy09qeeqrr4,:;*#Xo#2tjgaitwytwyiiyrwqwutwyt9rywer",
"putttttte953&X&*-dchptwturtueeteetw0ety91=Oo#%:90qqruqqttr9rr5:&&%#Xo#1rkgptrrwwwwwewwrw9weweeerrqwe",
"aireettrq731%X$&-dvkar9eteruewewwwq0wrt02=Oo#%-2700euweyye9er5;####Xo#1rlhieet00w00q0qte00wrweyewwee",
"apy0wpw0e5,:$.@%-dchywwwwtuurwq8800qyr03>-Oo#%*=3qtuurewqq0rr4;####Xo#2tlgiue9w07ete97qrt0wuytq89tte",
"uuurrtw081--#.o#-ikfurerewtueww88wqqerw3>-OXO$*=>308321<<<<22;&#+OOO+#<elkdyewq97we9900ryqqrwwrwq0qw",
"etyyr0q93:**@..@-rfdpyryy0wywqe09eq0qrr4,;+  #*-*=1:##$$#######@X .@$$:9kxjrey088qq50e0eywq08quue680",
"qqw00073>=&*+.+$=qfcfyryyqqwqqq00q90te8<<2#. +%*%%&%#######Oo#+X. .#&&=3fjfeqw000weqww90wtrqeyueqrw0",
"7776672>-*%%O.O#=8acsrttrq98000ww9qwre01<1$X +$&%#+OOOOOOOOXX@O.oX.$*=*1sfpwwe0qeewqwq76798680065085",
"321233:=*%##O .+=5ykuwye008690qtr8etqrt5,;&+.+$&%@X...XXXXXXO$@o#@X$=-=1sayqey90yw9788421<,>>,<,,<,>",
">>>;;;=%OoXX..O#&1rzsrqwq86660tte00070q4<,&+.+$&&%$$%->,1375588762:*&-=<puq66743442<<,>::---=---=---",
"%%%$###@o..XX.@%*:0xgu0qq88880rewe9770w62>&+.+$%=:1239wrupsppaitq6<%$-=,tw6211,>:::-=****&&&$$&$$%$$",
".......o#oX@O.@&-*5xksw000weeq89wu060ryw4=%+.+$$:6ruiglxbvlkkkaw4,-O+-=:9611<>;-***&%#######oo#oX#O.",
" XOXXOX.oO+OO+#&-*3dhdwer089qwrqqqq00q071=%+.XO#2eidjkjgapspist94>%oO%%&:;==**&%%%%%$@Oooooo..o..oX ",
"X+#OO#OXX+@o+##%=*<tdfrrrq989qrw970ew073>-%+.XO#5idhkjdiq0twqtw73;#Xo#@@@##@@@##@@@#@+oXXXXXXXXXXXXX",
"#######@#######%**,qafuw0ttw9779969wye8,;;%+.O#$5akjspyqq0q98qq8,*#Xo#o..O@X.X@+..o#Oo#$############",
"*&%$########+O#&=*>6isewetrwew0ew7qrweq,:<=@.X+%6axjitw9weqww9qq,*#Xo#@@$%&$$$+O@@#%##%&%%%%%%%%%%$$",
",>:=*=**=**=%@@$**;1ysqeyrqqttere8er9we<>2;#. o&6acjtw09tt0rt9we<*#Xo#&;<122,-++*=;;;;;;;;;;;;;;;;--",
"00978977987985#Xo&-=efpyrq09wre870qq0q03,:;%. o&6acf90wyut8eyqq9,&#Xo#;3wpgd0;&&-<590988000988000099",
"apiipaiiauttw6%o.&-&8payweq99qw979weq8663>;$. o&6aldwerreewerrq7>*#Xo#1wshkg8$&-<9ypssaasaasaasaasaa",
"jhghjjggjfpy02*+.&-&3wptwtrq880q07et05286<;$. o&6pfsuur980twqrq5>*#Xo#7sjhdi1.$>7ihkzzzzzklzzzzlkzlk",
"aiytuayyapt741*+.&-&<8rttqettw8ew5905<>32:=$. o&6pfsur94457531<,;*#Xo#qhhdiw:.$<wskkhffdsdfffdsddffd",
"utwwetrerrw321*O.%==:3wre79wq9686156<,,<>=%+. o%5yiywq71,>>:;=*=*&#XO*tkdir0;.$1rfkgspiiuuipuyyyyuii",
"urqewqtr899321&O.#*-=>qq9433223>--<1-,2:=&o   X#2eq74871*##########X@>ikpr00:.$<rhjiuyrtyweuwqe09eee",
"ur0qetwwrtw3<:%O.#*-=;42<,>>>:;=**=&@@#+OO.   .o,07<=;-*@oooooooooo.@>ikpyr0;.$1rfhiteewqweew0778q09",
"urqwrtwwrtw4,-%O.#*-=*-=*&***%####@O.         .X-31-#@++X   .X.  .X.#2akpuy0;.$<edfteeewqwwww0678q09",
"urqttqtr9094,=%O.#*-=$X+#XO#o.......          X@$%=&#o...   X@O  o#X&9fkpuyq:.$,qaa9eyrtyweuwqe99eee",
"errq98qw9ww4,-%O.@&--*##@XXo.        O#########%:2332233<,,,,,-#XO$&1yhkprq8;.$,9psrwweeewwwwq978qww",
"0er7559qwrw3>-%O.+&:132<:*&%$$$#@OoXo$;;:,,,,<<,8ttttiaauttrw82-OO%>9dkjie96=.$,8idiw0wwwwq0w0657000",
"0097659wyw72:&$O.+-5ijhhgdairww93:&#%;<38rrtupaaglkkkjkzlllhar6:Oo$<elkdttr6=.$>8yaitwqrt0qyw9557000",
"009qwq00rq71;&$+.+,ugjgdaaapiyre6-*&*>5eajgghhgfgjkjhjjhkkhhs03;Oo$2yxgprrw4*.$:5yperrqweqwr00q99ew0",
"qqwtyyq9007<-&$O.+2khsueqerryrqe6$&==<9fxbzlzgsaaadsaddaddpsu4,=oo%4ucfyew93&.%;1ti8qe98900979twqye0",
"ertq0wre863:*$$O.+3zstwweyyyewet7O$-=2rjljiuateuyrwriyuiutew92:&oo%4ibgt0ee1%.%=-7q532<,,,1323568q08",
"899655983<:=%##O.+3latertrtuwwtq1X#=*3yllstruw0wrrwerwwrte9q9<;%oo%3ingyweq<$X%&@:<>:;-===;:::><2432",
"<,>,,>,>-*%####O.+2ksuuut0wuwey5=.#**3yxkuttue97wuur089qtr8ew,=%oo$2unfuue8,$X&%.+##%&&&&&&*&&&=-;;-",
":;--=&&&%@ooXXXX.+3ziwuteryuw092=.#**3yxgqrtewerwqw079wtew0q9:=&oo%3inpwur8>#X**+oXXooooooOOooo#%%&*",
"%$$#@++++X.XX.oOO#4xiwtwqyyte051=.@&&3yxf9erewwtq70869wrqqwq7:=&oo%3inawue7>#X*=#OooooooooX.XX o++@#",
"......... X@OX%***5xdyr09yrqte51=.O$&3yxg00euq80869869989wue7:=&oo$2unguuw5>$X*=##########O.++. ....",
"#%====><11<<<<3,&@1zdt89qerrw962;+O+%2tzjrwqq09788789eq69qqe0>=%oo%3insrut0>#X*=%$$%&*****&%&&%@++++",
"=>3579eyiyreere5=O,zdt80q0wtq973:$oo%1rlkie08qq70q670rw5900eq>=$Xo%4ivpwtue,#X&:,<1111<:;;;---;&$$%%",
"<40ydkjklkjhgdiq1@,zduyw868wte73:$oo%1ejjatw0rtqrr6560959wyw6>*#Xo%4yluqqre,#X%2tdjgay03>:-***=*&&=-",
"<6tshkjjhfddaii9;+,vsrtrq78qyt04>&Oo%<qgjdie9ww70w656ww8wrw95:&@Xo%4uzaeqw0>#.%5gaiipssitreeeee6,&*-",
"<9aghffdiiuytrt6&o<bawrtt99wttr6,*+o%>7djhat00958q778ee0rr084;&@Xo%4uzstwq8>#.%7xy80ydkkjhjlkkjy5%*-",
"<ekfappy0rywryq6<@<bsryrwtytqwy7,=+X#*<pkzsuyrw9er9qr0760et81:*@XO%4ylieye8:#.%7xu98ripyweypyew93%&-",
"<rlfptrewerreew82#<bseeweyyrewe5,-+.O%,tjcduuteqwe80e856qee71;&@XO*5ykptue7>#.$7xpewwereweeeew95<%&*",
"<ekdue0qyewyw9tq1@<bsw9qryrqtr83,;@..$,wgbfiurwqq9780767er951=%@X+=5yksuuw6>$.$7xduuw90ryue9rtq3;$%&",
"<rlstqrrwryuw8t9;+,xdytyyeqqwer5,-@X+%:8dbgpurwtw89qw80reet6>*@o+#&5ykprwrq>#.$6jayertte0weteet5;$%&",
"<rzsyereqryye0e6=O,zfuert0qeery5>-@.O$;4ucgpueqeq09qw0wtwwr5:&+.O#*5ykiwe06>#.%5gaywtuteq0wtrry5-$%&",
"<rzsuueqqweety03;+,zgu70w7quuye3>;@  @=<wkfpue960w99qew00003;%O  +=5ykuwy5-;$X%5gayryyqry09qtyr3-$%&",
"<ekduerttewteqe6-O:jkd90eeeeewq3>;@  @=:8fjgiw0ewwrwqte8084,-$O.O#=3wsw63;%&$+$2aiywtyeeerw0qey4-$$$",
"<ekduetytreteqr7=O;dlg9qtre00qw4>:@  +*=4iggiw0e08q9697342:-*$O.@$&,594,=%#$$$#>eq958097709646q2=$##",
"<rzfputeqrywryw4=O-akg8wt0900eu7,:@  O$*1wiaue9731<>;===&$$$$#O.@$%--%%$$$$$%%o%4>-=-:::;::;;:>;=$##",
"<rzduetttewrwqr6=O=yggw0qerr00e5<:@  O$=:10re73<>-=%@+++OoooooX.@$&==%%%&**===%%%@+++@@@@@@@@@@@+O@#",
"<rzst0ryywqtw9r7-O&qdgy09yyr00w5<;@  o#==*254,;=&$@o.X. ..  .X..@%*==***==-----%ooooXXXXXXXXXXXXXX+#",
"<ekdy090rttwrt04-+%6skireye90wy6,-@  .o&=&&$O##oXX...+O O+. X@o.@%*=-;=&**=*****&%%%#@@@@@@@@@@@@@##",
"<elfirew0etrrre5-O#1alyrerw9eew4,-@  X+&*&%#O@@OOOO+@$$@##@@#$#@$&*-;;>,,,,,,,,,,,,,>:::::::::::-$%&",
"<rzfpyyr9qrurqr7-O+;alrww000te93,;@  o#%*==*&&&&&&&*-=--*=;--=-;--->,>47788878888877888888888885<%&=",
"<rzsywwetqqyr061-+O*pxie0977qet6<;@  .o#=,12222222223333223333576679qwtytiaipaiiaiuupaipaiiaiiaq1%&=",
"<eksueerrewrrq2-$oO*pxieqq080qe5<:$o. .@-30eweeweewweeeweeweewrytyiasfhjhklkklkkzkjjllkjhhhhgdp9,@$=",
"<qgspuutqrywrr,# .+=pztwwyrq0983,:&@. .@;7pfsfgdfgdfhhfsggsfgdfgdglxcxbnnnnnnbbbnnbbbnnxkzlkks04;X@=",
"<wjdueytqruye8,$.O#%ilrer0qw9qr5,-&@. .X*7pgflcxccxcczlkxcxzzxccxcvbvxccxzzhhggjkjgfghkhffghfu71=X#=",
"<whduerreertw7>$.+$%ulttt80r0qt5>-&@.   &7pgglxcxxcxzzkjlxclkzxcxxxzljhgfdsiipipdiytyispyppapr4,*O#*",
"<0sapueeuw8008>#.+$&ykpuy9wuw003>;&@.   &7pggddgdsgfsfdiadgsiafgdsapiitrrwqqruweuq80qwue9ttqtw2>-$##",
";8dteerrq85554:$.+$&tgeweewwre04,:&@.   %3yglfpytrrrrtteuuryiiutttyuuuytw98qwwryue09wreerutwe92>*O+#",
"*7deqwtr941<1<=@.+%&edw0qreqre95<;&@.   #<rgxgiq0090wqqqrr9rute0qetyytytq98wq9ertrw9eteetutee92>*o+#",
"&5aiyute03:;;=O..@%&0auw80ryw0851;&@.   +-tjxgiq000eywqewwett09qwtuur9weqwwq00778weewwye0ttqtq2>=$##",
"&2wqqq643,;;-=oXO#$%7ytrw9qeq843<;&@.   X#whxkdtre0qeqqw99wwwewqeewytq0990wrw980ewq988e08eeqe03>*+@$",
"&:2211;=-;;--=oo#$$%4wqee879861<>;&@.   .O9fxlguyr00qqq078q90rw0eq9etr9790qte90wyw9656998wq9083>&XO#",
"&&&@+Oo@;;;-;=oo#$%*2632222211<>;-&@.   o$9sllfe00reqte89qyw9877wew0wuwqteqqet09w879998wtw85762>*XO#",
"=*&#@+O+$$##$#++#$%&;:;-=----=-=**$@.   X@6pkhstq0ereeww90rq9976wewqqweeeq08qr09088ew070rq85651>*XO#",
"-;;-=&%@X.....+##$$################+.   .o2tjsiye00wt90y08090e07qw0w06er89078q00q90ye0680098751>*XO#",
"*==**&&&%$#@o.XO$&&##@oXXXXXXXXXXXXX.   o#2qu06765457556qeqetyw7097899qq7809wt0qtw0wrr890000q82>*XO#",
"&->1222221,>*#+@%**##@. .oX  .o.  XX.Xo.o$,45<:>:;:;;::=4980weq98756788867880w89e088qq788889071>&XO#",
"&>7riiiiirqq6<-==-=$$@..X@O..o#o..O@.O@Xo$==&%##OX@O.@+.%>322589655555555555555555555555555554<;%XO#",
"&2rafghhggggpe09963:;=&%$#@++@#@++@#+@#@@$=-&&%$@+#@+#@++$;:>,<1,,,,,<,,,,,,,,,,,,,,,,,,,,,,,>:$++@#",
"&4ifhgjhfhlzjfdssyq65332<>>>>::;;;--===**=;;***%$$$$$$$#OO$&*&*=&*=&&=*&=*&**&&&%&&&%&&&&&&%%%%OX#$$",
"&4ihgiiywudkzxxxzfpyyyyyyyytyrw099765441<<<>=--*&&&%%&%##+.+@XO#oO#oo$Oo#OX#+...................X#$$",
"&4pjhuuytiasapdghjjhhgfghfghgffdddsauuitrwq98887762:&=*%$@+@#+@#+@#++#o.oOOOOO.XOXXOX.OX.Oo.oOOO@%&&",
"&4pkhuyyuuyteetupfjkjhhjjhjjhjkjjkkhfghfdsaaaaaapy91*==*%$$$$#####@###OXX+@oO#oO#OO#Oo#+o@+X@#$$%&*=",
"&4pkhuwquw77wyrew0wpreiyriyrupprepyrippisghkzkjjfi0,$&*=**&&%$###+X@###@@##################@#$$%&*=-",
"&4ihgurruw9qerwq00wuq9erew98wtu09eq0eyueyspsgfdduq5;O$&==:480061>*@$%%&&&&&%%%$$%%%%$$%%%$$%%%&===--",
"&4ifduyyueqteqqq0etuw90er9549wy080990ry0wuwwuuuu041&.@%==1ifkldt05,>>;;----;:>;;:>>>:;:::;-;-;;;;---",
"&4ifduwwuq780ete9ruurq889r059980q8wrqryqeuqquuut71:$.@%**3hfaafjhgdsir3---:qiddsasdddsaapitw073:=*=-",
"&4uut06606335808580086544873553665896806706600983>;%oO@%&3kfiidjhhjhfa6;;:3agfggfdfhdsfdssirttt7>$&-",
"&4y04<>><,>,,>,<<>>,,><<,>,<>,<>><<,>,,>,<>><,>,>;-&#Xo#%3hfaipaiipaaa7>;20hdryuueeuw0ytryrqtaki5o#-",
"&2q5,*&&*&&&&&***&&*&&&**&&*&&*&&*&*&&*&&*&&*&&*&%%$#X.o$2sappaayq6wrq4>=6uauwyt0ryuyeqeyertwra8;X$;",
"&:2:%++++++++++++++++++++++++++++++++++++++++++++++++X .$,9990qq05,6852>*9durwtrqtutytwetwruqqt3&X$;",
"&%#o.............................................. ..  .$*$&&$&;,<,<11,:=ekyeeetuutqwruteetuw0q1%X$;",
"=*%@+++o.oO. .Oo  X+X  oO.XOX  oo. .Oo  XOX  oO. .Oo.Oo.#&&==$$%$#######%<84322344312333233421<:&X$;",
"--=&%%$#o@#OoO#@oo+#OXX+@o+#OXo@@oXo#+XX+#OXX@@oXo#+o@+X@%=;-&%$OXXXXXXO#*-;=&&&&&&&**%&&**&*&&&$.$;",
"-;;==-*&%&&&&&&&&&%########$########$####################%=;;===$########&--$XXXXXXXXXXXXXXXXXXXX.$;",
"&&*&&&%%%%%%%%%%%%%#######$##########$##########$$#######$&&&&&&$########%&&#OOOOOOOOOOOOOOOOOOOOO$*",
"####################################################################################################"
};
